<svg id="Layer_1" data-name="Layer 1" xmlns="http://www.w3.org/2000/svg" viewBox="0 0 436.26 110.54"><defs><style>.cls-1{fill:#5a93ce;}.cls-2{fill:#010101;}.cls-3{fill:none;stroke:#82d1dc;stroke-miterlimit:10;stroke-width:0.25px;}</style></defs><title>Logger_svg</title><path d="M377.44,403.1l-7,6.66c-7.85-5.34-15-5.61-20.84-.74A15.87,15.87,0,0,0,345,428.25c3.12,6.67,10,10.08,17.67,8.81,5.35-.87,10.41-5.58,11-10.53H359.77v-9.79h24.69c2.69,11.23-3.24,23.56-14.55,28.6a26.1,26.1,0,0,1-33.14-10.79c-6.75-11.48-3.76-25.71,7.16-34A25.63,25.63,0,0,1,377.44,403.1Z" transform="translate(-79.61 -365.91)"/><path d="M433,403l-7,6.66c-7.85-5.34-15-5.61-20.84-.74a15.87,15.87,0,0,0-4.56,19.23c3.12,6.67,10,10.08,17.67,8.81,5.35-.87,10.41-5.58,11-10.53H415.29v-9.79H440a25.77,25.77,0,0,1-47.69,17.81c-6.75-11.48-3.76-25.71,7.15-34A25.65,25.65,0,0,1,433,403Z" transform="translate(-79.61 -365.91)"/><path class="cls-1" d="M99.57,378.29l74.6.11c3.48,0,3.48-5.39,0-5.4l-74.6-.11c-3.47,0-3.48,5.39,0,5.4Z" transform="translate(-79.61 -365.91)"/><path class="cls-1" d="M100.06,433.05l53.63.12c3.47,0,3.48-5.4,0-5.4l-53.63-.12c-3.47,0-3.48,5.4,0,5.4Z" transform="translate(-79.61 -365.91)"/><path class="cls-1" d="M99.85,469.41l71.23.11c3.47,0,3.48-5.4,0-5.4L99.85,464c-3.47,0-3.48,5.39,0,5.4Z" transform="translate(-79.61 -365.91)"/><path class="cls-1" d="M100,414.8l84.47.1h12c3.48,0,3.48-5.39,0-5.4l-84.46-.1H100c-3.47,0-3.48,5.4,0,5.4Z" transform="translate(-79.61 -365.91)"/><path class="cls-1" d="M99.85,396.64h29.39c3.48,0,3.48-5.4,0-5.4H99.85c-3.47,0-3.48,5.4,0,5.4Z" transform="translate(-79.61 -365.91)"/><path class="cls-1" d="M100.33,451.35h37.53c3.47,0,3.48-5.4,0-5.4H100.33c-3.48,0-3.48,5.4,0,5.4Z" transform="translate(-79.61 -365.91)"/><path class="cls-1" d="M150.82,451.35h46.64c3.47,0,3.48-5.4,0-5.4H150.82c-3.48,0-3.48,5.4,0,5.4Z" transform="translate(-79.61 -365.91)"/><path class="cls-1" d="M167.28,433.11h31c3.47,0,3.48-5.4,0-5.4h-31c-3.47,0-3.48,5.4,0,5.4Z" transform="translate(-79.61 -365.91)"/><path class="cls-1" d="M87.81,366.7l-7,7c-2.46,2.46,1.36,6.28,3.82,3.82l7-7c2.46-2.46-1.36-6.28-3.82-3.82Z" transform="translate(-79.61 -365.91)"/><path class="cls-1" d="M80.79,377.54l7,6.95c2.46,2.46,6.28-1.36,3.82-3.82l-7-6.95c-2.47-2.46-6.29,1.36-3.82,3.82Z" transform="translate(-79.61 -365.91)"/><path class="cls-1" d="M87.43,439.57l-7,7c-2.46,2.46,1.35,6.28,3.82,3.82l7-7c2.46-2.46-1.35-6.28-3.81-3.82Z" transform="translate(-79.61 -365.91)"/><path class="cls-1" d="M80.4,450.41l7,6.95c2.46,2.46,6.28-1.36,3.82-3.82l-7-7c-2.46-2.46-6.28,1.36-3.82,3.82Z" transform="translate(-79.61 -365.91)"/><path class="cls-1" d="M208.23,439.22l7-7c2.46-2.46-1.35-6.28-3.82-3.81l-7,7c-2.46,2.46,1.35,6.28,3.81,3.82Z" transform="translate(-79.61 -365.91)"/><path class="cls-1" d="M215.26,428.39l-7-7c-2.46-2.45-6.28,1.36-3.81,3.82l7,7c2.46,2.45,6.28-1.36,3.82-3.82Z" transform="translate(-79.61 -365.91)"/><path class="cls-1" d="M180.62,475.65l7-7c2.46-2.46-1.36-6.28-3.82-3.82l-7,7c-2.46,2.46,1.36,6.28,3.82,3.81Z" transform="translate(-79.61 -365.91)"/><path class="cls-1" d="M187.64,464.82l-7-6.95c-2.47-2.46-6.29,1.36-3.82,3.82l7,6.95c2.46,2.46,6.28-1.36,3.82-3.82Z" transform="translate(-79.61 -365.91)"/><path class="cls-2" d="M245.33,395.32h10.42l.1,41.49h20.06v10.5H245.42Z" transform="translate(-79.61 -365.91)"/><path class="cls-2" d="M303.55,395.4a24.74,24.74,0,0,1,18.2,7.66,25.49,25.49,0,0,1,7.62,18.68,25.21,25.21,0,0,1-7.52,18.47A26,26,0,0,1,285,440a26.2,26.2,0,0,1,18.58-44.61Zm-.1,9.85a15.14,15.14,0,0,0-11.25,4.66,16.22,16.22,0,0,0-4.55,11.82q0,8,5.74,12.65A15.74,15.74,0,0,0,303.62,438a14.94,14.94,0,0,0,11.11-4.71,17,17,0,0,0,0-23.28A15.07,15.07,0,0,0,303.45,405.25Z" transform="translate(-79.61 -365.91)"/><path class="cls-2" d="M444.44,395.27l29.88.13v10.37l-18.59-.13v10.57h13.88v10.21H455.73v10.86h18.59v10.37H444.44Z" transform="translate(-79.61 -365.91)"/><path d="M492.71,431.5c-.7-1.07-2.25-3.24-3.18-4.68,0,6.05-.1,14.4-.1,20.7H479.24V395.37s12.27-.23,19.8,0,14.36,7.59,15.12,14.42c1,8.82-2,14.43-10.34,19,3.75,5.85,8,12.33,12.05,18.67-4.23,0-8.08.16-11.8.13ZM489.47,405v15h7.1a6.87,6.87,0,0,0,2.89-.7,7.78,7.78,0,0,0,2-1.48,6.73,6.73,0,0,0,2.18-5.45,7.14,7.14,0,0,0-4.3-6.69A8.94,8.94,0,0,0,496,405C492.4,405,489.47,405,489.47,405Zm24.69,4.77" transform="translate(-79.61 -365.91)"/><path class="cls-3" d="M514,395.32" transform="translate(-79.61 -365.91)"/><path class="cls-3" d="M243.33,395.32" transform="translate(-79.61 -365.91)"/></svg>